<svg
  xmlns="http://www.w3.org/2000/svg"
  aria-hidden="true"
  style="position: absolute; width: 0; height: 0; overflow: hidden"
>
  <defs>
    <symbol id="icon-big-insta" viewBox="0 0 32 32">
      <path
        d="M32 16c0 4.418-1.791 8.418-4.686 11.314S20.419 32 16 32c-4.418 0-8.418-1.791-11.314-4.686S0 20.419 0 16c0-4.418 1.791-8.418 4.686-11.314S11.581 0 16 0c4.418 0 8.418 1.791 11.314 4.686S32 11.581 32 16z"
      />
      <path
        fill="#f4f4fd"
        d="M25.581 12.045c-.045-1.02-.21-1.722-.446-2.329-.244-.645-.619-1.223-1.11-1.703-.48-.488-1.061-.866-1.699-1.106-.611-.236-1.309-.401-2.329-.446-1.028-.049-1.354-.06-3.961-.06s-2.933.011-3.957.056c-1.02.045-1.722.21-2.329.446-.645.244-1.223.619-1.703 1.11-.488.48-.866 1.062-1.106 1.699-.236.611-.401 1.309-.446 2.329-.049 1.028-.06 1.354-.06 3.961s.011 2.933.056 3.957c.045 1.02.21 1.722.446 2.329.244.645.623 1.223 1.11 1.703.48.488 1.061.866 1.699 1.106.611.236 1.309.401 2.329.446 1.024.045 1.35.056 3.957.056s2.933-.011 3.957-.056c1.02-.045 1.722-.21 2.329-.446 1.29-.499 2.31-1.519 2.809-2.809.236-.611.401-1.309.446-2.329.045-1.024.056-1.35.056-3.957s-.004-2.933-.049-3.957zm-1.729 7.839c-.041.938-.199 1.444-.33 1.782-.323.836-.986 1.5-1.823 1.823-.338.131-.848.289-1.782.33-1.013.045-1.316.056-3.878.056s-2.869-.011-3.878-.056c-.938-.041-1.444-.199-1.782-.33-.416-.154-.795-.398-1.103-.716-.319-.311-.563-.686-.716-1.103-.131-.338-.289-.848-.33-1.782-.045-1.013-.056-1.317-.056-3.878s.011-2.869.056-3.878c.041-.938.199-1.444.33-1.782.154-.416.398-.795.72-1.103.311-.319.686-.563 1.103-.716.338-.131.848-.289 1.782-.33 1.013-.045 1.317-.056 3.878-.056 2.566 0 2.869.011 3.878.056.938.041 1.444.199 1.782.33.416.154.795.397 1.103.716.319.311.563.686.716 1.103.131.338.289.848.33 1.782.045 1.013.056 1.316.056 3.878s-.011 2.862-.056 3.875z"
        style="fill: var(--color2, #f4f4fd)"
      />
      <path
        fill="#f4f4fd"
        d="M16.036 11.07c-2.723 0-4.932 2.209-4.932 4.932s2.209 4.932 4.932 4.932c2.723 0 4.932-2.209 4.932-4.932s-2.209-4.932-4.932-4.932zm0 8.131c-1.766 0-3.199-1.433-3.199-3.199s1.433-3.199 3.199-3.199c1.767 0 3.199 1.433 3.199 3.199s-1.433 3.199-3.199 3.199zM22.314 10.875c0 .636-.516 1.151-1.152 1.151s-1.151-.516-1.151-1.151c0-.636.516-1.151 1.151-1.151s1.152.515 1.152 1.151z"
        style="fill: var(--color2, #f4f4fd)"
      />
    </symbol>
    <symbol id="icon-big-twit" viewBox="0 0 32 32">
      <path
        d="M32 16c0 4.418-1.791 8.418-4.686 11.314S20.419 32 16 32c-4.418 0-8.418-1.791-11.314-4.686S0 20.419 0 16c0-4.418 1.791-8.418 4.686-11.314S11.581 0 16 0c4.418 0 8.418 1.791 11.314 4.686S32 11.581 32 16z"
      />
      <path
        fill="#f4f4fd"
        d="M25.6 10.047c-.714.313-1.475.521-2.268.622.816-.487 1.439-1.253 1.732-2.176-.761.454-1.601.774-2.496.953-.722-.769-1.752-1.246-2.875-1.246-2.179 0-3.934 1.769-3.934 3.937 0 .312.026.612.091.898-3.272-.16-6.168-1.728-8.113-4.117-.34.589-.539 1.264-.539 1.99 0 1.363.702 2.572 1.748 3.271-.632-.012-1.253-.196-1.778-.485v.043c0 1.913 1.364 3.502 3.154 3.868-.32.088-.67.13-1.032.13-.252 0-.506-.014-.745-.067.51 1.559 1.957 2.705 3.678 2.742-1.339 1.048-3.04 1.679-4.88 1.679-.323 0-.632-.014-.942-.054 1.744 1.124 3.81 1.766 6.038 1.766 7.243 0 11.203-6 11.203-11.201 0-.174-.006-.342-.014-.509.781-.554 1.438-1.247 1.973-2.044z"
        style="fill: var(--color2, #f4f4fd)"
      />
    </symbol>
    <symbol id="icon-big-face" viewBox="0 0 32 32">
      <path
        d="M32 16c0 4.418-1.791 8.418-4.686 11.314S20.419 32 16 32c-4.418 0-8.418-1.791-11.314-4.686S0 20.419 0 16c0-4.418 1.791-8.418 4.686-11.314S11.581 0 16 0c4.418 0 8.418 1.791 11.314 4.686S32 11.581 32 16z"
      />
      <path
        fill="#f4f4fd"
        d="M19.198 9.588h1.753V6.535c-.302-.042-1.342-.135-2.554-.135-2.527 0-4.258 1.59-4.258 4.511V13.6H11.35v3.413h2.789V25.6h3.419v-8.586h2.676l.425-3.413h-3.102V11.25c.001-.986.266-1.662 1.641-1.662z"
        style="fill: var(--color2, #f4f4fd)"
      />
    </symbol>
    <symbol id="icon-big-lin" viewBox="0 0 32 32">
      <path
        d="M32 16c0 4.418-1.791 8.418-4.686 11.314S20.419 32 16 32c-4.418 0-8.418-1.791-11.314-4.686S0 20.419 0 16c0-4.418 1.791-8.418 4.686-11.314S11.581 0 16 0c4.418 0 8.418 1.791 11.314 4.686S32 11.581 32 16z"
      />
      <path
        fill="#f4f4fd"
        d="M25.595 25.6v-.001h.005v-7.042c0-3.445-.742-6.098-4.769-6.098-1.936 0-3.235 1.062-3.766 2.07h-.056v-1.748h-3.818v12.818h3.976v-6.347c0-1.671.317-3.287 2.386-3.287 2.039 0 2.07 1.907 2.07 3.394V25.6h3.972zM6.717 12.782h3.981V25.6H6.717V12.782zM8.706 6.4C7.433 6.4 6.4 7.433 6.4 8.706s1.033 2.327 2.306 2.327c1.273 0 2.306-1.054 2.306-2.327S9.978 6.4 8.706 6.4z"
        style="fill: var(--color2, #f4f4fd)"
      />
    </symbol>
  </defs>
</svg>